<svg width="44" height="44" viewBox="0 0 44 44" fill="none" xmlns="http://www.w3.org/2000/svg">
<path d="M43.863 19.564C43.7924 18.9444 43.0693 18.4835 42.4445 18.4835C39.7712 18.5414 37.5564 16.4232 37.4985 13.7484C37.4657 12.333 38.0578 10.9729 39.1186 10.0284C39.5948 9.59518 39.6553 8.86729 39.2547 8.36104C38.2267 7.06142 37.055 5.88018 35.7625 4.83997C35.2561 4.43699 34.5203 4.49492 34.087 4.9785C32.676 6.46198 30.5117 6.94808 28.6018 6.21264C26.7046 5.40415 25.5203 3.4925 25.6337 1.43476C25.669 0.787471 25.1953 0.223294 24.5503 0.145216C22.9075 -0.0436828 21.2471 -0.0487201 19.6018 0.132622C18.9669 0.203145 18.4932 0.747172 18.5108 1.38691C18.5839 3.42701 17.3821 5.29585 15.4949 6.07663C13.5951 6.78437 11.456 6.29827 10.045 4.83997C9.61414 4.36899 8.89102 4.30854 8.3871 4.70397C7.06935 5.73913 5.87506 6.92038 4.82943 8.22504C4.4263 8.73128 4.48173 9.46169 4.95793 9.90246C6.49993 11.2827 6.9988 13.489 6.20261 15.4032C5.34595 17.2619 3.45877 18.4256 1.41286 18.3601C0.767846 18.3173 0.205977 18.7983 0.145507 19.4406C-0.0485022 21.1029 -0.0485022 22.7803 0.145507 24.4401C0.203457 25.0823 0.951776 25.5231 1.58167 25.5231C3.5646 25.508 5.35855 26.7044 6.10687 28.543C6.87031 30.4345 6.3815 32.6005 4.87731 33.9807C4.40362 34.4139 4.34315 35.1393 4.74125 35.643C5.7642 36.9452 6.93329 38.1264 8.22333 39.1641C8.72976 39.5721 9.46297 39.5142 9.90138 39.0356C11.3124 37.5496 13.4792 37.0585 15.3941 37.7914C17.2964 38.5924 18.4882 40.5065 18.3647 42.5668C18.3319 43.2141 18.8056 43.7783 19.4481 43.8563C20.2897 43.952 21.1362 43.9999 21.9854 43.9999C22.7916 44.0024 23.5979 43.9571 24.4016 43.8639C25.0391 43.7934 25.5153 43.2418 25.4926 42.6021C25.417 40.5619 26.6164 38.6931 28.4985 37.9098C30.4008 37.2071 32.5374 37.7008 33.9358 39.1641C34.3692 39.6376 35.0923 39.6955 35.5962 39.3001C36.9114 38.2649 38.1032 37.0837 39.1514 35.7816C39.5595 35.2753 39.5041 34.5424 39.0254 34.1041C37.0198 32.336 36.8258 29.2784 38.5945 27.271C39.5318 26.2107 40.8848 25.6113 42.3008 25.6339H42.573C43.2205 25.6667 43.7849 25.1957 43.863 24.5509C44.0469 22.8936 44.0444 21.2213 43.863 19.564ZM30.0178 30.0164C27.9669 32.0666 25.1298 33.3359 22.0005 33.3359C15.7393 33.3359 10.6623 28.2609 10.6623 22.002C10.6623 18.8714 11.9322 16.0379 13.9831 13.9877C16.0341 11.9375 18.8711 10.6681 22.0005 10.6681C25.1298 10.6681 27.9669 11.9375 30.0178 13.9877C32.0688 16.0379 33.3386 18.8714 33.3386 22.002C33.3386 25.1327 32.0688 27.9662 30.0178 30.0164Z" fill="#4A4A4A"/>
</svg>
