<svg width="40" height="41" viewBox="0 0 40 41" fill="none" xmlns="http://www.w3.org/2000/svg">
<path d="M19.4694 12.6236C18.6819 14.6785 16.5987 16.1793 13.7671 17.3972C10.3099 18.8865 7.87485 21.4089 6.61263 24.7106C5.69668 27.0946 5.73019 29.7382 6.20492 32.353C4.32277 30.4482 3.17225 28.0874 1.9603 25.4841C0.312713 21.9457 -0.15643 17.5704 0.0446316 14.5515C0.290373 10.8573 1.80392 7.11117 4.59643 4.404C7.03151 2.03163 10.8405 0.403863 13.7615 1.07344C16.3753 1.67375 18.8271 3.35923 19.6816 6.00868C20.4077 8.27138 20.2569 10.5687 19.4694 12.6236Z" fill="#4A4A4A"/>
<path d="M14.3146 22.9617C16.4313 22.6385 18.7323 23.7525 21.1674 25.6746C24.1442 28.0239 27.4729 28.9417 30.8742 28.4222C33.326 28.047 35.5265 26.6963 37.4813 24.9704C36.8334 27.6083 35.4204 29.8133 33.851 32.203C31.7119 35.447 28.2716 38.056 25.6466 39.3836C22.424 41.0114 18.5369 41.5309 14.8675 40.3822C11.6617 39.3836 8.39444 36.7861 7.49525 33.8423C6.68542 31.2044 6.88089 28.1625 8.67369 26.0787C10.2096 24.2951 12.209 23.2849 14.3202 22.9617H14.3146Z" fill="#4A4A4A"/>
<path d="M25.3446 22.2866C24.0154 20.5549 23.7976 17.9401 24.1941 14.8C24.6744 10.9615 23.7808 7.52127 21.6418 4.73329C20.1003 2.72456 17.8663 1.42582 15.4424 0.548442C17.978 -0.190401 20.5359 -0.0345512 23.3173 0.184793C27.1039 0.479175 31.0135 2.24547 33.4318 3.93673C36.4086 6.00895 38.7822 9.22985 39.6647 13.0857C40.4298 16.4509 39.8881 20.6761 37.8663 22.9562C36.0567 24.9995 33.415 26.3502 30.7733 25.7845C28.5114 25.3054 26.6627 24.0182 25.3335 22.2866H25.3391H25.3446Z" fill="#4A4A4A"/>
</svg>