<svg width="38" height="38" viewBox="0 0 38 38" fill="none" xmlns="http://www.w3.org/2000/svg">
<path d="M37.9953 0.00378418H0.00292969V8.53166H37.9953V0.00378418Z" fill="#4A4A4A"/>
<path d="M37.9953 29.4684H0.00292969V37.9963H37.9953V29.4684Z" fill="#4A4A4A"/>
<path fill-rule="evenodd" clip-rule="evenodd" d="M5.16369 13.9081H5.17745C8.03078 13.9081 10.3382 16.2201 10.3428 19.0688V19.0826C10.3428 21.9359 8.03078 24.2434 5.17745 24.2434H5.16369C2.31495 24.2434 0.00292969 21.9313 0.00292969 19.0826V19.0688C0.00292969 16.2201 2.31495 13.9081 5.16369 13.9081Z" fill="#4A4A4A"/>
<path fill-rule="evenodd" clip-rule="evenodd" d="M18.857 13.9081H18.8708C21.7241 13.9081 24.0316 16.2201 24.0362 19.0688V19.0826C24.0362 21.9359 21.7241 24.2434 18.8708 24.2434H18.857C16.0083 24.2434 13.6963 21.9313 13.6963 19.0826V19.0688C13.6963 16.2201 16.0083 13.9081 18.857 13.9081Z" fill="#4A4A4A"/>
<path fill-rule="evenodd" clip-rule="evenodd" d="M32.8199 13.9081H32.8337C35.687 13.9081 37.9945 16.2201 37.9991 19.0688V19.0826C37.9991 21.9359 35.687 24.2434 32.8337 24.2434H32.8199C29.9712 24.2434 27.6592 21.9313 27.6592 19.0826V19.0688C27.6592 16.2201 29.9712 13.9081 32.8199 13.9081Z" fill="#4A4A4A"/>
</svg>
