<svg width="44" height="27" viewBox="0 0 44 27" fill="none" xmlns="http://www.w3.org/2000/svg">
<path d="M19.1668 4.58742C17.2448 2.43704 13.8109 0.227878 9.08526 0.0466382C2.61305 -0.203178 0.02037 0.631993 0.02037 0.631993C0.02037 0.631993 0.40192 1.32756 0.444578 2.64522C0.489606 3.96288 0.326083 4.82989 0.326083 4.82989L0.750291 5.114C0.750291 5.114 2.11774 3.96043 4.24117 3.49264C7.45713 2.78238 11.0238 2.60114 14.6545 4.86908C18.6668 7.37949 19.0294 12.0868 19.0294 12.0868H12.7136C9.83178 12.0868 6.57316 13.1204 3.39749 16.5443C-0.249799 20.4777 0.00377895 26.924 0.00377895 26.924H10.32C15.0479 26.924 18.6549 23.598 20.1077 21.3692C21.5581 19.1405 21.9989 17.9649 21.9989 13.0983C21.9989 8.60408 21.0888 6.73536 19.1668 4.58742ZM18.8658 17.3379C18.7402 18.271 18.1644 19.667 16.2424 21.308C14.3204 22.9489 10.32 23.4265 8.65393 23.4265H4.15111C4.15111 23.4265 4.17718 22.4738 4.35729 21.7537C4.73885 20.2401 5.90721 17.7812 8.86959 15.8757C11.8296 13.9702 15.439 14.1833 15.439 14.1833H18.9986C18.9986 14.1833 18.9938 16.4047 18.8658 17.3379Z" fill="white"/>
<path d="M16.33 16.0276H17.7235C17.7235 16.0276 17.861 16.9901 16.9391 17.9526C16.0172 18.9152 13.0714 19.7454 11.3485 20.2794C9.62555 20.8133 7.52344 22.1334 7.52344 22.1334C7.52344 22.1334 8.34817 21.1488 9.21555 20.6443C11.4006 19.3756 13.4364 18.8025 14.9815 17.7396C16.3916 16.7721 16.33 16.0276 16.33 16.0276Z" fill="white"/>
<path d="M43.6732 22.1678L43.249 21.8861C43.249 21.8861 41.8816 23.0397 39.7581 23.5075C36.5422 24.2178 32.9754 24.399 29.3448 22.1286C25.3325 19.6206 24.9699 14.9133 24.9699 14.9133H31.2833C34.1675 14.9133 37.4238 13.8798 40.6018 10.4534C44.2491 6.52242 43.9955 0.0761719 43.9955 0.0761719H33.6793C28.9513 0.0761719 25.342 3.39971 23.8916 5.63092C22.4412 7.85967 21.998 9.03528 21.998 13.8994C21.998 18.3936 22.9105 20.2648 24.8324 22.4127C26.7544 24.5606 30.1884 26.7698 34.914 26.9535C41.3862 27.2033 43.9789 26.3681 43.9789 26.3681C43.9789 26.3681 43.5974 25.6726 43.5547 24.3549C43.5097 23.0373 43.6732 22.1678 43.6732 22.1678ZM25.1311 9.66227C25.259 8.72913 25.8325 7.3331 27.7545 5.69215C29.6765 4.04875 33.6793 3.5736 35.3454 3.5736H39.8458C39.8458 3.5736 39.8221 4.52634 39.642 5.2464C39.2604 6.75999 38.0921 9.21897 35.1297 11.1244C32.1673 13.0274 28.5603 12.8168 28.5603 12.8168H25.0007C25.0007 12.8168 25.0055 10.593 25.1311 9.66227Z" fill="white"/>
<path d="M27.6674 10.9701H26.2739C26.2739 10.9701 26.1364 10.0075 27.0583 9.04501C27.9802 8.08248 30.926 7.25221 32.6489 6.71829C34.3718 6.18437 36.4739 4.86426 36.4739 4.86426C36.4739 4.86426 35.6492 5.84883 34.7818 6.35336C32.5968 7.62204 30.561 8.19515 29.0158 9.25809C27.6057 10.2255 27.6674 10.9701 27.6674 10.9701Z" fill="white"/>
</svg>
