<svg width="40" height="41" viewBox="0 0 40 41" fill="none" xmlns="http://www.w3.org/2000/svg">
<path d="M19.4694 12.6238C18.6819 14.6787 16.5987 16.1794 13.7671 17.3974C10.3099 18.8866 7.87485 21.4091 6.61263 24.7108C5.69668 27.0947 5.73019 29.7384 6.20492 32.3532C4.32277 30.4483 3.17225 28.0875 1.9603 25.4842C0.312713 21.9459 -0.15643 17.5705 0.0446316 14.5517C0.290373 10.8575 1.80392 7.11129 4.59643 4.40413C7.03151 2.03175 10.8405 0.403985 13.7615 1.07356C16.3753 1.67387 18.8271 3.35936 19.6816 6.0088C20.4077 8.27151 20.2569 10.5688 19.4694 12.6238Z" fill="white"/>
<path d="M14.3146 22.9617C16.4313 22.6385 18.7323 23.7525 21.1674 25.6746C24.1442 28.0239 27.4729 28.9417 30.8742 28.4222C33.326 28.047 35.5265 26.6963 37.4813 24.9704C36.8334 27.6083 35.4204 29.8133 33.851 32.203C31.7119 35.447 28.2716 38.056 25.6466 39.3836C22.424 41.0114 18.5369 41.5309 14.8675 40.3822C11.6617 39.3836 8.39444 36.7861 7.49525 33.8423C6.68542 31.2044 6.88089 28.1625 8.67369 26.0787C10.2096 24.2951 12.209 23.2849 14.3202 22.9617H14.3146Z" fill="white"/>
<path d="M25.3446 22.2863C24.0154 20.5547 23.7976 17.9399 24.1941 14.7998C24.6744 10.9613 23.7808 7.52103 21.6418 4.73305C20.1003 2.72432 17.8663 1.42557 15.4424 0.548198C17.978 -0.190645 20.5359 -0.0347953 23.3173 0.184549C27.1039 0.478931 31.0135 2.24523 33.4318 3.93648C36.4086 6.00871 38.7822 9.2296 39.6647 13.0854C40.4298 16.4506 39.8881 20.6759 37.8663 22.9559C36.0567 24.9993 33.415 26.35 30.7733 25.7843C28.5114 25.3052 26.6627 24.018 25.3335 22.2863H25.3391H25.3446Z" fill="white"/>
</svg>
