<svg width="38" height="38" viewBox="0 0 38 38" fill="none" xmlns="http://www.w3.org/2000/svg">
<path d="M37.9953 0.00390625H0.00292969V8.53178H37.9953V0.00390625Z" fill="white"/>
<path d="M37.9953 29.4683H0.00292969V37.9961H37.9953V29.4683Z" fill="white"/>
<path fill-rule="evenodd" clip-rule="evenodd" d="M5.16369 13.9082H5.17745C8.03078 13.9082 10.3382 16.2202 10.3428 19.069V19.0827C10.3428 21.9361 8.03078 24.2435 5.17745 24.2435H5.16369C2.31495 24.2435 0.00292969 21.9315 0.00292969 19.0827V19.069C0.00292969 16.2202 2.31495 13.9082 5.16369 13.9082Z" fill="white"/>
<path fill-rule="evenodd" clip-rule="evenodd" d="M18.857 13.9082H18.8708C21.7241 13.9082 24.0316 16.2202 24.0362 19.069V19.0827C24.0362 21.9361 21.7241 24.2435 18.8708 24.2435H18.857C16.0083 24.2435 13.6963 21.9315 13.6963 19.0827V19.069C13.6963 16.2202 16.0083 13.9082 18.857 13.9082Z" fill="white"/>
<path fill-rule="evenodd" clip-rule="evenodd" d="M32.8199 13.9082H32.8337C35.687 13.9082 37.9945 16.2202 37.9991 19.069V19.0827C37.9991 21.9361 35.687 24.2435 32.8337 24.2435H32.8199C29.9712 24.2435 27.6592 21.9315 27.6592 19.0827V19.069C27.6592 16.2202 29.9712 13.9082 32.8199 13.9082Z" fill="white"/>
</svg>
